# xmcd
# Track frame offsets:
# 150
# 18340
# 29995
# 45690
# 59062
# 72107
# 86722
# 100847
# 115090
# 133485
# 151285
# 164642
# 181900
# 198047
# 216287
# 227277
# 240417
# 255657
#
# Disc length: 3621 seconds
# Revision: 4
# Processed by: cddbd v1.5.2PL0 Copyright (c) Steve Scherf et al.
# Submitted via: VisiTrax 2.11.1.266 - For more info visit www.synapsa.com
#
DISCID=fc0e2312
DTITLE=Slim Dusty - Australia Is His Name Disc 3
DYEAR=1985
DGENRE=Australian Country
TTITLE0=Slim Dusty - Big Frogs In Little Puddles
TTITLE1=Slim Dusty - Sequel To The Pub With No Beer
TTITLE2=Slim Dusty - Trumby
TTITLE3=Slim Dusty - Joe Maguire's Pub
TTITLE4=Slim Dusty - Every Little Bit Of Australia
TTITLE5=Slim Dusty - The Birdsville Track
TTITLE6=Slim Dusty - G'Day Blue
TTITLE7=Slim Dusty - Medley: The Old Bullock Dray, The Snake Gully Swagger, Ga
TTITLE7=me As Ned Kelly, Woolloomooloo
TTITLE8=Slim Dusty - From The Gulf To Adelaide
TTITLE9=Slim Dusty - The Brass Well
TTITLE10=Slim Dusty - Harry The Breaker
TTITLE11=Slim Dusty - Where Country Is
TTITLE12=Slim Dusty - Medley: When A Boy From Alabama Meets A Girl From Gundaga
TTITLE12=i, A Little Boy Called Smiley, A Town Like Alice
TTITLE13=Slim Dusty - Last Thing To Learn
TTITLE14=Slim Dusty - Charley Gray's Barndance
TTITLE15=Slim Dusty - Henry Lawson
TTITLE16=Slim Dusty - Dieseline Dreams
TTITLE17=Slim Dusty and Gordon Parsons - Pub With No Beer (Duet)
EXTD=YEAR: 1985 ID3G: 2
EXTT0=
EXTT1=
EXTT2=
EXTT3=
EXTT4=
EXTT5=
EXTT6=
EXTT7=The Old Bullock Dray\nThe Snake Gully Swagger\nGame As Ned Kelly\nWool
EXTT7=loomooloo
EXTT8=
EXTT9=
EXTT10=
EXTT11=
EXTT12=When A Boy From Alabama Meets A Girl From Gundagai\nA Little Boy Calle
EXTT12=d Smiley\nA Town Like Alice
EXTT13=
EXTT14=
EXTT15=
EXTT16=
EXTT17=
PLAYORDER=
